<?xml version="1.0" encoding="UTF-8"?>
<!DOCTYPE svg
PUBLIC "-//W3C//DTD SVG 1.1//EN"
       "http://www.w3.org/Graphics/SVG/1.1/DTD/svg11.dtd">
<svg viewBox="41 -5 1207 566" width="1166px" height="571px" xmlns="http://www.w3.org/2000/svg" version="1.1">
   <line x1="498" y1="501" x2="508" y2="501" style="stroke:#c00;stroke-width:1;"/>
   <line x1="773" y1="428" x2="783" y2="428" style="stroke:#c00;stroke-width:1;"/>
   <line x1="508" y1="501" x2="773" y2="428" style="stroke:#c00;stroke-width:1;"/>
   <line x1="505.5" y1="501" x2="501.96446609407" y2="504.53553390593" style="stroke:#c00;stroke-width:2;"/>
   <line x1="505.5" y1="501" x2="501.96446609407" y2="497.46446609407" style="stroke:#c00;stroke-width:2;"/>
   <line x1="778" y1="428" x2="774.46446609407" y2="431.53553390593" style="stroke:#c00;stroke-width:2;"/>
   <line x1="778" y1="428" x2="774.46446609407" y2="424.46446609407" style="stroke:#c00;stroke-width:2;"/>
   <line x1="458" y1="203" x2="448" y2="203" style="stroke:#b0b;stroke-width:1;"/>
   <line x1="508" y1="461" x2="498" y2="461" style="stroke:#b0b;stroke-width:1;"/>
   <line x1="448" y1="203" x2="508" y2="461" style="stroke:#b0b;stroke-width:1;"/>
   <line x1="450.5" y1="203" x2="454.03553390593" y2="206.53553390593" style="stroke:#b0b;stroke-width:2;"/>
   <line x1="450.5" y1="203" x2="454.03553390593" y2="199.46446609407" style="stroke:#b0b;stroke-width:2;"/>
   <line x1="503" y1="461" x2="506.53553390593" y2="464.53553390593" style="stroke:#b0b;stroke-width:2;"/>
   <line x1="503" y1="461" x2="506.53553390593" y2="457.46446609407" style="stroke:#b0b;stroke-width:2;"/>
   <line x1="789" y1="232" x2="779" y2="232" style="stroke:#0bf;stroke-width:1;"/>
   <line x1="155" y1="140" x2="145" y2="140" style="stroke:#0bf;stroke-width:1;"/>
   <line x1="779" y1="232" x2="155" y2="140" style="stroke:#0bf;stroke-width:1;"/>
   <line x1="781.5" y1="232" x2="785.03553390593" y2="235.53553390593" style="stroke:#0bf;stroke-width:2;"/>
   <line x1="781.5" y1="232" x2="785.03553390593" y2="228.46446609407" style="stroke:#0bf;stroke-width:2;"/>
   <line x1="150" y1="140" x2="153.53553390593" y2="143.53553390593" style="stroke:#0bf;stroke-width:2;"/>
   <line x1="150" y1="140" x2="153.53553390593" y2="136.46446609407" style="stroke:#0bf;stroke-width:2;"/>
   <line x1="145" y1="200" x2="155" y2="200" style="stroke:#bbb;stroke-width:1;"/>
   <line x1="773" y1="428" x2="783" y2="428" style="stroke:#bbb;stroke-width:1;"/>
   <line x1="155" y1="200" x2="773" y2="428" style="stroke:#bbb;stroke-width:1;"/>
   <line x1="152.5" y1="200" x2="148.96446609407" y2="203.53553390593" style="stroke:#bbb;stroke-width:2;"/>
   <line x1="152.5" y1="200" x2="148.96446609407" y2="196.46446609407" style="stroke:#bbb;stroke-width:2;"/>
   <line x1="778" y1="428" x2="774.46446609407" y2="431.53553390593" style="stroke:#bbb;stroke-width:2;"/>
   <line x1="778" y1="428" x2="774.46446609407" y2="424.46446609407" style="stroke:#bbb;stroke-width:2;"/>
   <rect width="136" height="20" x="1056" y="227" style="fill:#007;stroke:black;"/>
   <text width="136" height="20" x="1061" y="241" style="fill:#fff;" font-family="Arial" font-size="16px"> answer</text>
   <rect width="136" height="20" x="1056" y="247" style="fill:none;stroke:black;"/>
   <text width="136" height="20" x="1061" y="261" style="fill:black;" font-family="Arial" font-size="16px">created_at</text>
   <rect width="136" height="20" x="1056" y="267" style="fill:none;stroke:black;"/>
   <text width="136" height="20" x="1061" y="281" style="fill:black;" font-family="Arial" font-size="16px">created_by</text>
   <rect width="136" height="20" x="1056" y="287" style="fill:none;stroke:black;"/>
   <text width="136" height="20" x="1061" y="301" style="fill:black;" font-family="Arial" font-size="16px">updated_at</text>
   <rect width="136" height="20" x="1056" y="307" style="fill:none;stroke:black;"/>
   <text width="136" height="20" x="1061" y="321" style="fill:black;" font-family="Arial" font-size="16px">updated_by</text>
   <rect width="136" height="20" x="1056" y="327" style="fill:none;stroke:black;"/>
   <text width="136" height="20" x="1061" y="341" style="fill:black;" font-family="Arial" font-size="16px">is_active</text>
   <rect width="136" height="20" x="1056" y="347" style="fill:#aea;stroke:black;"/>
   <text width="136" height="20" x="1061" y="361" style="fill:black;" font-family="Arial" font-size="16px">id</text>
   <rect width="136" height="20" x="1056" y="367" style="fill:none;stroke:black;"/>
   <text width="136" height="20" x="1061" y="381" style="fill:black;" font-family="Arial" font-size="16px">exam_id</text>
   <rect width="136" height="20" x="1056" y="387" style="fill:none;stroke:black;"/>
   <text width="136" height="20" x="1061" y="401" style="fill:black;" font-family="Arial" font-size="16px">question_id</text>
   <rect width="136" height="20" x="1056" y="407" style="fill:none;stroke:black;"/>
   <text width="136" height="20" x="1061" y="421" style="fill:black;" font-family="Arial" font-size="16px">selected_option_id</text>
   <rect width="136" height="20" x="1056" y="427" style="fill:none;stroke:black;"/>
   <text width="136" height="20" x="1061" y="441" style="fill:black;" font-family="Arial" font-size="16px">is_correct</text>
   <rect width="136" height="20" x="1056" y="447" style="fill:none;stroke:black;"/>
   <text width="136" height="20" x="1061" y="461" style="fill:black;" font-family="Arial" font-size="16px">candidate_id</text>
   <rect width="136" height="20" x="1056" y="467" style="fill:none;stroke:black;"/>
   <text width="136" height="20" x="1061" y="481" style="fill:black;" font-family="Arial" font-size="16px">attempt_id</text>
   <rect width="136" height="20" x="1056" y="487" style="fill:none;stroke:black;"/>
   <text width="136" height="20" x="1061" y="501" style="fill:black;" font-family="Arial" font-size="16px">positive_marks</text>
   <rect width="136" height="20" x="1056" y="507" style="fill:none;stroke:black;"/>
   <text width="136" height="20" x="1061" y="521" style="fill:black;" font-family="Arial" font-size="16px">negative_marks</text>
   <rect width="147" height="20" x="351" y="331" style="fill:#007;stroke:black;"/>
   <text width="147" height="20" x="356" y="345" style="fill:#fff;" font-family="Arial" font-size="16px"> exam</text>
   <rect width="147" height="20" x="351" y="351" style="fill:none;stroke:black;"/>
   <text width="147" height="20" x="356" y="365" style="fill:black;" font-family="Arial" font-size="16px">created_at</text>
   <rect width="147" height="20" x="351" y="371" style="fill:none;stroke:black;"/>
   <text width="147" height="20" x="356" y="385" style="fill:black;" font-family="Arial" font-size="16px">created_by</text>
   <rect width="147" height="20" x="351" y="391" style="fill:none;stroke:black;"/>
   <text width="147" height="20" x="356" y="405" style="fill:black;" font-family="Arial" font-size="16px">updated_at</text>
   <rect width="147" height="20" x="351" y="411" style="fill:none;stroke:black;"/>
   <text width="147" height="20" x="356" y="425" style="fill:black;" font-family="Arial" font-size="16px">updated_by</text>
   <rect width="147" height="20" x="351" y="431" style="fill:none;stroke:black;"/>
   <text width="147" height="20" x="356" y="445" style="fill:black;" font-family="Arial" font-size="16px">is_active</text>
   <rect width="147" height="20" x="351" y="451" style="fill:#aea;stroke:black;"/>
   <text width="147" height="20" x="356" y="465" style="fill:black;" font-family="Arial" font-size="16px">id</text>
   <rect width="147" height="20" x="351" y="471" style="fill:none;stroke:black;"/>
   <text width="147" height="20" x="356" y="485" style="fill:black;" font-family="Arial" font-size="16px">exam_name</text>
   <rect width="147" height="20" x="351" y="491" style="fill:none;stroke:black;"/>
   <text width="147" height="20" x="356" y="505" style="fill:black;" font-family="Arial" font-size="16px">userId</text>
   <rect width="147" height="20" x="351" y="511" style="fill:none;stroke:black;"/>
   <text width="147" height="20" x="356" y="525" style="fill:black;" font-family="Arial" font-size="16px">exam_duration_type</text>
   <rect width="147" height="20" x="351" y="531" style="fill:none;stroke:black;"/>
   <text width="147" height="20" x="356" y="545" style="fill:black;" font-family="Arial" font-size="16px">duration</text>
   <rect width="119" height="20" x="458" y="13" style="fill:#007;stroke:black;"/>
   <text width="119" height="20" x="463" y="27" style="fill:#fff;" font-family="Arial" font-size="16px"> exam_details</text>
   <rect width="119" height="20" x="458" y="33" style="fill:none;stroke:black;"/>
   <text width="119" height="20" x="463" y="47" style="fill:black;" font-family="Arial" font-size="16px">created_at</text>
   <rect width="119" height="20" x="458" y="53" style="fill:none;stroke:black;"/>
   <text width="119" height="20" x="463" y="67" style="fill:black;" font-family="Arial" font-size="16px">created_by</text>
   <rect width="119" height="20" x="458" y="73" style="fill:none;stroke:black;"/>
   <text width="119" height="20" x="463" y="87" style="fill:black;" font-family="Arial" font-size="16px">updated_at</text>
   <rect width="119" height="20" x="458" y="93" style="fill:none;stroke:black;"/>
   <text width="119" height="20" x="463" y="107" style="fill:black;" font-family="Arial" font-size="16px">updated_by</text>
   <rect width="119" height="20" x="458" y="113" style="fill:none;stroke:black;"/>
   <text width="119" height="20" x="463" y="127" style="fill:black;" font-family="Arial" font-size="16px">is_active</text>
   <rect width="119" height="20" x="458" y="133" style="fill:#aea;stroke:black;"/>
   <text width="119" height="20" x="463" y="147" style="fill:black;" font-family="Arial" font-size="16px">id</text>
   <rect width="119" height="20" x="458" y="153" style="fill:none;stroke:black;"/>
   <text width="119" height="20" x="463" y="167" style="fill:black;" font-family="Arial" font-size="16px">exam_id</text>
   <rect width="119" height="20" x="458" y="173" style="fill:none;stroke:black;"/>
   <text width="119" height="20" x="463" y="187" style="fill:black;" font-family="Arial" font-size="16px">question_id</text>
   <rect width="119" height="20" x="458" y="193" style="fill:none;stroke:black;"/>
   <text width="119" height="20" x="463" y="207" style="fill:black;" font-family="Arial" font-size="16px">examId</text>
   <rect width="119" height="20" x="458" y="213" style="fill:none;stroke:black;"/>
   <text width="119" height="20" x="463" y="227" style="fill:black;" font-family="Arial" font-size="16px">positive_marks</text>
   <rect width="119" height="20" x="458" y="233" style="fill:none;stroke:black;"/>
   <text width="119" height="20" x="463" y="247" style="fill:black;" font-family="Arial" font-size="16px">negative_marks</text>
   <rect width="119" height="20" x="458" y="253" style="fill:none;stroke:black;"/>
   <text width="119" height="20" x="463" y="267" style="fill:black;" font-family="Arial" font-size="16px">duration</text>
   <rect width="84" height="20" x="1049" y="28" style="fill:#007;stroke:black;"/>
   <text width="84" height="20" x="1054" y="42" style="fill:#fff;" font-family="Arial" font-size="16px"> migrations</text>
   <rect width="84" height="20" x="1049" y="48" style="fill:#aea;stroke:black;"/>
   <text width="84" height="20" x="1054" y="62" style="fill:black;" font-family="Arial" font-size="16px">id</text>
   <rect width="84" height="20" x="1049" y="68" style="fill:none;stroke:black;"/>
   <text width="84" height="20" x="1054" y="82" style="fill:black;" font-family="Arial" font-size="16px">timestamp</text>
   <rect width="84" height="20" x="1049" y="88" style="fill:none;stroke:black;"/>
   <text width="84" height="20" x="1054" y="102" style="fill:black;" font-family="Arial" font-size="16px">name</text>
   <rect width="89" height="20" x="789" y="22" style="fill:#007;stroke:black;"/>
   <text width="89" height="20" x="794" y="36" style="fill:#fff;" font-family="Arial" font-size="16px"> option</text>
   <rect width="89" height="20" x="789" y="42" style="fill:none;stroke:black;"/>
   <text width="89" height="20" x="794" y="56" style="fill:black;" font-family="Arial" font-size="16px">created_at</text>
   <rect width="89" height="20" x="789" y="62" style="fill:none;stroke:black;"/>
   <text width="89" height="20" x="794" y="76" style="fill:black;" font-family="Arial" font-size="16px">created_by</text>
   <rect width="89" height="20" x="789" y="82" style="fill:none;stroke:black;"/>
   <text width="89" height="20" x="794" y="96" style="fill:black;" font-family="Arial" font-size="16px">updated_at</text>
   <rect width="89" height="20" x="789" y="102" style="fill:none;stroke:black;"/>
   <text width="89" height="20" x="794" y="116" style="fill:black;" font-family="Arial" font-size="16px">updated_by</text>
   <rect width="89" height="20" x="789" y="122" style="fill:none;stroke:black;"/>
   <text width="89" height="20" x="794" y="136" style="fill:black;" font-family="Arial" font-size="16px">is_active</text>
   <rect width="89" height="20" x="789" y="142" style="fill:#aea;stroke:black;"/>
   <text width="89" height="20" x="794" y="156" style="fill:black;" font-family="Arial" font-size="16px">id</text>
   <rect width="89" height="20" x="789" y="162" style="fill:none;stroke:black;"/>
   <text width="89" height="20" x="794" y="176" style="fill:black;" font-family="Arial" font-size="16px">title</text>
   <rect width="89" height="20" x="789" y="182" style="fill:none;stroke:black;"/>
   <text width="89" height="20" x="794" y="196" style="fill:black;" font-family="Arial" font-size="16px">question_id</text>
   <rect width="89" height="20" x="789" y="202" style="fill:none;stroke:black;"/>
   <text width="89" height="20" x="794" y="216" style="fill:black;" font-family="Arial" font-size="16px">is_correct</text>
   <rect width="89" height="20" x="789" y="222" style="fill:none;stroke:black;"/>
   <text width="89" height="20" x="794" y="236" style="fill:black;" font-family="Arial" font-size="16px">questionId</text>
   <rect width="89" height="20" x="56" y="10" style="fill:#007;stroke:black;"/>
   <text width="89" height="20" x="61" y="24" style="fill:#fff;" font-family="Arial" font-size="16px"> question</text>
   <rect width="89" height="20" x="56" y="30" style="fill:none;stroke:black;"/>
   <text width="89" height="20" x="61" y="44" style="fill:black;" font-family="Arial" font-size="16px">created_at</text>
   <rect width="89" height="20" x="56" y="50" style="fill:none;stroke:black;"/>
   <text width="89" height="20" x="61" y="64" style="fill:black;" font-family="Arial" font-size="16px">created_by</text>
   <rect width="89" height="20" x="56" y="70" style="fill:none;stroke:black;"/>
   <text width="89" height="20" x="61" y="84" style="fill:black;" font-family="Arial" font-size="16px">updated_at</text>
   <rect width="89" height="20" x="56" y="90" style="fill:none;stroke:black;"/>
   <text width="89" height="20" x="61" y="104" style="fill:black;" font-family="Arial" font-size="16px">updated_by</text>
   <rect width="89" height="20" x="56" y="110" style="fill:none;stroke:black;"/>
   <text width="89" height="20" x="61" y="124" style="fill:black;" font-family="Arial" font-size="16px">is_active</text>
   <rect width="89" height="20" x="56" y="130" style="fill:#aea;stroke:black;"/>
   <text width="89" height="20" x="61" y="144" style="fill:black;" font-family="Arial" font-size="16px">id</text>
   <rect width="89" height="20" x="56" y="150" style="fill:none;stroke:black;"/>
   <text width="89" height="20" x="61" y="164" style="fill:black;" font-family="Arial" font-size="16px">title</text>
   <rect width="89" height="20" x="56" y="170" style="fill:none;stroke:black;"/>
   <text width="89" height="20" x="61" y="184" style="fill:black;" font-family="Arial" font-size="16px">type</text>
   <rect width="89" height="20" x="56" y="190" style="fill:none;stroke:black;"/>
   <text width="89" height="20" x="61" y="204" style="fill:black;" font-family="Arial" font-size="16px">userId</text>
   <rect width="124" height="20" x="74" y="258" style="fill:#007;stroke:black;"/>
   <text width="124" height="20" x="79" y="272" style="fill:#fff;" font-family="Arial" font-size="16px"> result</text>
   <rect width="124" height="20" x="74" y="278" style="fill:none;stroke:black;"/>
   <text width="124" height="20" x="79" y="292" style="fill:black;" font-family="Arial" font-size="16px">created_at</text>
   <rect width="124" height="20" x="74" y="298" style="fill:none;stroke:black;"/>
   <text width="124" height="20" x="79" y="312" style="fill:black;" font-family="Arial" font-size="16px">created_by</text>
   <rect width="124" height="20" x="74" y="318" style="fill:none;stroke:black;"/>
   <text width="124" height="20" x="79" y="332" style="fill:black;" font-family="Arial" font-size="16px">updated_at</text>
   <rect width="124" height="20" x="74" y="338" style="fill:none;stroke:black;"/>
   <text width="124" height="20" x="79" y="352" style="fill:black;" font-family="Arial" font-size="16px">updated_by</text>
   <rect width="124" height="20" x="74" y="358" style="fill:none;stroke:black;"/>
   <text width="124" height="20" x="79" y="372" style="fill:black;" font-family="Arial" font-size="16px">is_active</text>
   <rect width="124" height="20" x="74" y="378" style="fill:#aea;stroke:black;"/>
   <text width="124" height="20" x="79" y="392" style="fill:black;" font-family="Arial" font-size="16px">id</text>
   <rect width="124" height="20" x="74" y="398" style="fill:none;stroke:black;"/>
   <text width="124" height="20" x="79" y="412" style="fill:black;" font-family="Arial" font-size="16px">exam_id</text>
   <rect width="124" height="20" x="74" y="418" style="fill:none;stroke:black;"/>
   <text width="124" height="20" x="79" y="432" style="fill:black;" font-family="Arial" font-size="16px">total_questions</text>
   <rect width="124" height="20" x="74" y="438" style="fill:none;stroke:black;"/>
   <text width="124" height="20" x="79" y="452" style="fill:black;" font-family="Arial" font-size="16px">correct_answers</text>
   <rect width="124" height="20" x="74" y="458" style="fill:none;stroke:black;"/>
   <text width="124" height="20" x="79" y="472" style="fill:black;" font-family="Arial" font-size="16px">candidate_id</text>
   <rect width="124" height="20" x="74" y="478" style="fill:none;stroke:black;"/>
   <text width="124" height="20" x="79" y="492" style="fill:black;" font-family="Arial" font-size="16px">attempt_id</text>
   <rect width="124" height="20" x="74" y="498" style="fill:none;stroke:black;"/>
   <text width="124" height="20" x="79" y="512" style="fill:black;" font-family="Arial" font-size="16px">total_marks</text>
   <rect width="124" height="20" x="74" y="518" style="fill:none;stroke:black;"/>
   <text width="124" height="20" x="79" y="532" style="fill:black;" font-family="Arial" font-size="16px">score</text>
   <rect width="89" height="20" x="783" y="298" style="fill:#007;stroke:black;"/>
   <text width="89" height="20" x="788" y="312" style="fill:#fff;" font-family="Arial" font-size="16px"> user</text>
   <rect width="89" height="20" x="783" y="318" style="fill:none;stroke:black;"/>
   <text width="89" height="20" x="788" y="332" style="fill:black;" font-family="Arial" font-size="16px">created_at</text>
   <rect width="89" height="20" x="783" y="338" style="fill:none;stroke:black;"/>
   <text width="89" height="20" x="788" y="352" style="fill:black;" font-family="Arial" font-size="16px">created_by</text>
   <rect width="89" height="20" x="783" y="358" style="fill:none;stroke:black;"/>
   <text width="89" height="20" x="788" y="372" style="fill:black;" font-family="Arial" font-size="16px">updated_at</text>
   <rect width="89" height="20" x="783" y="378" style="fill:none;stroke:black;"/>
   <text width="89" height="20" x="788" y="392" style="fill:black;" font-family="Arial" font-size="16px">updated_by</text>
   <rect width="89" height="20" x="783" y="398" style="fill:none;stroke:black;"/>
   <text width="89" height="20" x="788" y="412" style="fill:black;" font-family="Arial" font-size="16px">is_active</text>
   <rect width="89" height="20" x="783" y="418" style="fill:#aea;stroke:black;"/>
   <text width="89" height="20" x="788" y="432" style="fill:black;" font-family="Arial" font-size="16px">id</text>
   <rect width="89" height="20" x="783" y="438" style="fill:none;stroke:black;"/>
   <text width="89" height="20" x="788" y="452" style="fill:black;" font-family="Arial" font-size="16px">username</text>
   <rect width="89" height="20" x="783" y="458" style="fill:none;stroke:black;"/>
   <text width="89" height="20" x="788" y="472" style="fill:black;" font-family="Arial" font-size="16px">email</text>
   <rect width="89" height="20" x="783" y="478" style="fill:none;stroke:black;"/>
   <text width="89" height="20" x="788" y="492" style="fill:black;" font-family="Arial" font-size="16px">password</text>
   <rect width="89" height="20" x="783" y="498" style="fill:none;stroke:black;"/>
   <text width="89" height="20" x="788" y="512" style="fill:black;" font-family="Arial" font-size="16px">role</text>
</svg>
